<?xml version="1.0" encoding="utf-8"?>
<!-- Generator: Adobe Illustrator 26.3.1, SVG Export Plug-In . SVG Version: 6.00 Build 0)  -->
<svg version="1.1" id="uuid-df4caaa6-ed18-458c-beee-770ed9f415f4"
	 xmlns="http://www.w3.org/2000/svg" xmlns:xlink="http://www.w3.org/1999/xlink" x="0px" y="0px" viewBox="0 0 297.4 353"
	 style="enable-background:new 0 0 297.4 353;" xml:space="preserve">
<style type="text/css">
	.st0{fill:#8CB369;}
	.st1{fill:#FFFFFF;}
</style>
<g id="uuid-1421f1a9-1671-4b5b-ba4a-7206ac7e1b0a">
	
		<g id="uuid-9fa01dc1-4fff-4278-8769-6fdba5b55480" transform="matrix(0.9226978969485438, 0, 0, 0.9226978969485438, 5.726736326515367, 31.91911379270092)">
		<path id="uuid-b66a64d6-b0c4-47a3-87b1-d1dc0c0efc2a" class="st0" d="M239.4,82.2c-25.6,5.5-54.2,8.6-84.5,8.6s-58.8-3.1-84.5-8.6
			C55.8,100.6,47,123.9,47,149.3s8.8,48.7,23.4,67.1c25.6-5.5,54.2-8.6,84.5-8.6s58.8,3.1,84.5,8.6c14.7-18.4,23.4-41.7,23.4-67.1
			S254.1,100.6,239.4,82.2L239.4,82.2z"/>
		<path id="uuid-87a19661-a514-4965-b188-2b70da95eb5a" class="st0" d="M83.7,228.9c19.1,17.3,44.6,55,72.4,55s53.3-37.7,72.4-55
			c-22.4-4.3-46.9-6.7-72.4-6.7S106.1,224.6,83.7,228.9z"/>
		<path id="uuid-717be22e-296b-4aeb-81e1-8199d1092af1" class="st0" d="M228.5,68.9C209.4,51.6,184,41,156.1,41
			s-53.3,10.6-72.4,27.9c22.4,4.3,46.9,6.7,72.4,6.7S206.1,73.2,228.5,68.9L228.5,68.9z"/>
		<path id="uuid-bb5a232b-0e67-4e22-99b0-a43dfc7608be" d="M234.8,87.3c-23.7,5.1-50,7.9-78,7.9s-54.3-2.8-78-7.9
			c-13.5,17-21.6,38.5-21.6,61.9s8.1,44.9,21.6,61.9c23.7-5.1,50-7.9,78-7.9s54.3,2.8,78,7.9c13.5-17,21.6-38.5,21.6-61.9
			S248.4,104.3,234.8,87.3L234.8,87.3z"/>
		<path id="uuid-f48da60a-9f03-489b-86fc-95d181bd7b8c" d="M90.4,222.7c17.7,16,41.1,52.9,66.9,52.9s49.2-36.9,66.9-52.9
			c-20.7-3.9-43.3-6.1-66.9-6.1S111.1,218.7,90.4,222.7L90.4,222.7z"/>
		<path id="uuid-74146447-0911-4b29-8e91-654f31b2b7a2" d="M224.1,75c-17.7-16-41.1-25.8-66.9-25.8S108.1,59,90.4,75
			c20.7,3.9,43.3,6.1,66.9,6.1S203.4,79,224.1,75L224.1,75z"/>
		<path id="uuid-15356485-12dd-412c-b3d2-f751669bab83" class="st1" d="M147.4,90.5c2.8-2.3,6.8-1.7,9.8-0.6
			c2.1,0.9,4.4,2.4,5.9,4.3c1,1.2,0.4,2.8,0.2,4.1c-0.5,2-1.3,3.2-1.3,6.6c-1.7,0.3-2,0.6-2.6,2.6c-0.3,1.5-1.2,3.3-2.4,3.6
			c-1-0.1-1.1-0.5-2.1-0.6c-1.2,1.3,0.6,2.8,1.3,3.9c2.1,2.3,1.9,5.5,2.7,8.2c0.2,0.6-1.1,1,5.5,8.5c1.8,3.3,4.8,5.7,7.5,8.2
			c3,2.8,4.9,6.5,7.8,9.5c1.2,1.4,2.2,3.5,4.3,3.7c2.2,0,3,2.1,5.2,2.3c4.6-0.8,9.9-6.4,13.6-11.4c1.7-11,17.5-26.6,26-16
			c7.3,11.6-11.4,21.6-22.2,21.1c-5.9,2.1-7.7,3.7-14.5,10.7c-1.9,0.2,0.4,2.2-4.8,4.4c-1-0.2-2.2-0.4-2.5-1.5
			c-0.6-1.5-2.3-1.5-3.4-2.5c-3.9-4.9-9.6-7.9-14.5-11.7c-2.9-1.8-3.9-5.2-6.1-7.6c-1.2-1.3-2.2-2.7-3.1-4.1
			c-5.6-8.5-4.9-3.4-6.2-5.7c-2-3.6-8.7-0.4-10.7,0.7c-2.8,0.8-6.3,2.6-8.8,4.4c-2.7,1.1-3.8,3.9-5,6.3c-0.4,0.9,0.8,1.4,1.3,1.9
			c5.1,2.8,9.6,6.7,14.8,9.3c1.4,0.8,3.4,1.4,4.1,3.1c1.8,3.8,1.3,8.2,2.9,12.2c1,2.5,2.1,4.9,2.4,7.6c0.3,2.4,1.9,4.3,2.1,6.8
			c0.7,5.4,4,10.5,9,12.8c3.4,1.8,7.2,2.6,11,3.1c2.7,0.4,2.7,4.9,0.2,5.5c-4.3,1.3-8.8,2.4-13.3,2.1c-4.4-0.2-9.2,1.1-13.3-0.9
			c-0.6-3.2,1.1-6.2,1.2-9.3c-1.4-8.6-9-14.5-10.6-23.1c-0.6-2.7,0-5.6-0.7-8.2c-3.5-2-7.6-2.4-11.6-3c-2.1-0.3-3.9-1.4-6-1.6
			c-1.3,1.3-1.2,3.3-1.6,5c-0.4,3.3-2.1,6.3-3.1,9.5c-0.7,2.6-2.8,4.6-3,7.4c-0.2,1.3-0.1,3-1.4,3.8c-2.1,1.4-4.6,1.8-7.1,1.6
			c-3.7-0.2-7.2,1.6-10.9,1.5c-6,0.1-12.2,0.2-17.7,2.6c-1.7,0.8-2.9,2.5-4.9,2.8c-3.8,0.8-7.2,2.9-10.5,4.8c-1.1,0.8-2.6,0.1-3-0.8
			c-1.4-3.9,3.7-7,7.1-10c1.4-1.2,2.5-2.6,3.6-4.1c1.8-2.5,4.1-4.5,6.4-6.7c1.6,1.2,2.7,2.8,4.2,4.1c1,1,2.6,0.6,3.7,0.1
			c4.3-1.9,8.4-4.1,13-5.1c2.2-0.6,4.4,0,6.6-0.2c2-3.2,1-7.2,0.7-10.7c-0.6-0.2-1.3-0.5-1.9-0.7c0.3-3.1,0.6-6.3,1.4-9.3
			c0.8-3-1.9-5.4-2.2-8.2c-0.5-3.5,0.8-6.9,2.1-10.1c1.5-3.2,3.3-6.4,5.8-9c3.4-4.4,7.3-8.5,11.3-12.4c2.7-1.7,4.8-4.2,7.9-5
			c3.4-1.1,6.6-2.5,10.1-3.5c2.5-0.6,4.3-2.6,6.1-4.3c0.9-2.2-0.3-4.8,0.9-7C145,94.2,145.8,92.2,147.4,90.5L147.4,90.5L147.4,90.5z
			"/>
		<path id="uuid-d27f27f0-b44d-4da7-b095-215cbad5449d" class="st1" d="M240,119.9c1.6-0.6,3.7-0.2,4.6,1.4c1.1,1.7,0.2,4.2-1.6,5
			c-1.6,0.6-3.8,0.6-4.9-0.9C236.7,123.5,238,120.7,240,119.9L240,119.9L240,119.9z"/>
	</g>
	<path id="uuid-65996ad4-c28c-44de-a2f9-ae1f8e9c01d1" class="st0" d="M0,0h46.8v17h-5.6c-0.4-0.5-0.8-1-1.3-1.5
		c-0.5-0.5-1-1-1.6-1.4c-0.6-0.4-1.3-0.7-2-1c-0.7-0.3-1.5-0.4-2.3-0.4l0,0v23l4.3,0.8V51H8.5V36.6l4.3-0.8v-23
		c-0.8,0-1.6,0.1-2.3,0.4s-1.4,0.6-2,1c-0.6,0.4-1.1,0.9-1.6,1.4C6.4,16,6,16.5,5.6,17H0V0z M75.1,17.6v7.2l9.2-2v9.5l-9.2-2v7.3
		c1.3,0,2.6-0.1,3.9-0.3c1.2-0.2,2.4-0.5,3.4-0.8c1.1-0.3,2-0.7,2.9-1.2s1.6-0.9,2.3-1.4h4.6v17H51.2V37.8l4-0.8V18.2l-4-0.8V4.3
		h41.1v17h-4.6c-0.6-0.5-1.4-1-2.3-1.4c-0.9-0.4-1.9-0.8-2.9-1.2c-1.1-0.3-2.2-0.6-3.4-0.8C77.8,17.7,76.5,17.6,75.1,17.6L75.1,17.6
		L75.1,17.6z M129.5,51l-16-24.5V37l4,0.7V51h-20V37.8l4-0.8V18.1l-4-0.8V4.3h24l16,25.2V18.2l-4-0.8V4.3h20v13.1l-4,0.8V37l4,0.8
		V51H129.5z M191.9,51l-16-24.5V37l4,0.7V51h-20V37.8l4-0.8V18.1l-4-0.8V4.3h24l16,25.2V18.2l-4-0.8V4.3h20v13.1l-4,0.8V37l4,0.8V51
		H191.9z M222.3,17.3V4.3h28v13.1l-4,0.8V37l4,0.8V51h-28V37.8l4-0.8V18.1L222.3,17.3L222.3,17.3z M297.4,36.3L297.4,36.3
		c0,2.1-0.3,3.9-0.9,5.5c-0.6,1.6-1.4,3-2.4,4.1c-1,1.2-2.2,2.1-3.6,2.9s-2.9,1.4-4.5,1.9s-3.3,0.8-5,0.8c-1.7,0.1-3.5,0.1-5.2,0.1
		l0,0c-2.4,0-4.5-0.1-6.5-0.2c-1.9-0.1-3.6-0.4-5.2-0.7c-1.5-0.4-2.9-0.8-4-1.2c-1.2-0.5-2.2-0.9-3.1-1.3l0,0V36.6h9.4
		c0.9,1.5,2,2.5,3.2,3.2c1.2,0.7,2.4,1,3.7,1l0,0c0.4,0,0.8,0,1.3-0.1c0.5-0.1,0.9-0.3,1.3-0.6c0.4-0.4,0.7-0.9,1-1.6
		c0.3-0.7,0.4-1.8,0.4-3.1l0,0c-1.8-0.2-3.6-0.4-5.3-0.7c-1.8-0.3-3.4-0.7-5-1.2s-3.1-1.2-4.5-1.9c-1.4-0.8-2.6-1.7-3.6-2.9
		c-1-1.1-1.8-2.4-2.4-4c-0.6-1.5-0.9-3.3-0.9-5.2l0,0c0-2.3,0.3-4.2,0.9-5.9c0.6-1.7,1.4-3.2,2.4-4.4c1-1.2,2.2-2.2,3.5-3
		c1.4-0.8,2.8-1.4,4.4-1.9c1.6-0.5,3.2-0.8,4.9-1c1.7-0.2,3.4-0.3,5.1-0.3l0,0c2.4,0,4.6,0.1,6.5,0.4c1.9,0.2,3.6,0.6,5.1,0.9
		c1.5,0.4,2.9,0.8,4,1.2c1.2,0.5,2.2,0.9,3.1,1.3l0,0v11.6h-10.1c-0.8-1.6-1.8-2.8-2.9-3.5c-1.1-0.7-2.2-1.1-3.3-1.1l0,0
		c-0.4,0-0.8,0.1-1.3,0.2c-0.5,0.1-0.9,0.4-1.4,0.8c-0.4,0.4-0.8,1-1.1,1.9c-0.3,0.8-0.4,1.9-0.4,3.3l0,0c3.7,0.1,6.9,0.5,9.6,1.2
		c2.8,0.6,5.1,1.6,6.9,2.9c1.9,1.3,3.3,2.9,4.2,4.9C296.9,31,297.4,33.5,297.4,36.3L297.4,36.3z"/>
	<path id="uuid-1c0647db-8c44-4cc6-9039-e0673009ad63" d="M85.6,326.1L85.6,326.1c0,1.9,0.2,3.6,0.7,4.9c0.5,1.4,1.2,2.5,2.2,3.4
		c0.9,0.9,2.1,1.5,3.5,2c1.4,0.4,2.9,0.6,4.7,0.6l0,0c2.1,0,4.6-0.3,7.4-0.8c2.8-0.5,6-1.3,9.4-2.4l0,0v15.6
		c-3.6,1.2-7.1,2.1-10.5,2.6c-3.4,0.5-6.7,0.8-10,0.8l0,0c-4,0-7.8-0.5-11.3-1.5c-3.5-1-6.6-2.6-9.1-4.9c-2.6-2.2-4.6-5.1-6.1-8.5
		c-1.5-3.4-2.2-7.4-2.2-12l0,0c0-4.5,0.7-8.4,2.1-11.6c1.4-3.2,3.3-5.9,5.8-8c2.5-2.1,5.5-3.7,9-4.7c3.5-1,7.4-1.5,11.7-1.5l0,0
		c2.6,0,5,0.1,7.1,0.4c2.1,0.3,4,0.6,5.7,1c1.7,0.4,3.2,0.9,4.5,1.4c1.3,0.5,2.5,1,3.5,1.4l0,0v15.4h-10c-1.1-1.6-2.4-2.8-3.8-3.5
		c-1.4-0.8-2.8-1.1-4.3-1.1l0,0c-1.2,0-2.5,0.2-3.6,0.7c-1.2,0.5-2.2,1.2-3.1,2.1c-0.9,0.9-1.7,2.1-2.2,3.4
		C85.9,322.9,85.6,324.4,85.6,326.1L85.6,326.1z M175.8,318.5l-4,0.8c0,0.7,0,1.3,0,2v1.8l0,0v5.2c0,4.4-0.6,8.3-1.8,11.4
		c-1.2,3.2-2.9,5.8-5,7.8c-2.1,2-4.5,3.5-7.4,4.3c-2.8,0.8-5.8,1.2-9,1.2l0,0c-3.7,0-7.1-0.4-10.2-1.2c-3.2-0.8-5.9-2.2-8.3-4.3
		c-2.3-2-4.2-4.6-5.5-7.8c-1.3-3.2-2-7-2-11.4l0,0v-8.9l-4-0.8v-13.2h26.1v13.2l-4,0.8v5.6c0,0.5,0,1.1,0,1.5c0,0.5,0,0.9,0,1.2
		c0,0.3,0,0.6,0,0.7l0,0c0,0.5,0,1.1,0,1.8s0.1,1.4,0.3,2.1c0.2,0.7,0.4,1.4,0.7,2.1s0.8,1.3,1.4,1.9c0.6,0.6,1.3,1,2.2,1.3
		c0.9,0.3,2,0.5,3.4,0.5l0,0c1.3,0,2.5-0.2,3.4-0.5c0.9-0.3,1.7-0.8,2.3-1.4c0.6-0.6,1-1.2,1.4-1.9c0.3-0.7,0.6-1.4,0.7-2.2
		c0.1-0.7,0.2-1.4,0.3-2.1c0-0.7,0.1-1.3,0.1-1.8l0,0v-0.8c0-0.3,0-0.7,0-1.2c0-0.5,0-0.9,0-1.5v-1.6l0,0v-4l-4-0.8v-13.2h23.2
		L175.8,318.5L175.8,318.5z M181,318.5v-13.2h27.3c3.6,0,6.6,0.2,9.3,0.5c2.6,0.3,4.8,0.8,6.7,1.3c1.8,0.6,3.3,1.3,4.5,2.1
		c1.2,0.8,2.1,1.8,2.7,2.9c0.7,1.1,1.1,2.2,1.3,3.5c0.2,1.3,0.3,2.6,0.3,4l0,0c0,1.5-0.1,2.8-0.4,4.1c-0.3,1.3-0.8,2.5-1.6,3.6
		c-0.8,1.1-1.8,2-3.1,2.9c-1.3,0.9-3,1.6-5.1,2.2c-2.1,0.6-4.6,1-7.5,1.3c-2.9,0.3-6.4,0.5-10.4,0.5l0,0v4l4,0.8v13.3H181v-13.3
		l4-0.8v-19L181,318.5L181,318.5z M205.1,313.4v12.4c1.2,0,2.3-0.1,3.3-0.2c1-0.1,1.8-0.4,2.5-0.9s1.2-1.1,1.6-1.9
		c0.4-0.8,0.6-2,0.6-3.4l0,0c0-1.3-0.2-2.4-0.6-3.2c-0.4-0.8-0.9-1.4-1.6-1.8c-0.7-0.4-1.5-0.7-2.5-0.8
		C207.4,313.5,206.3,313.4,205.1,313.4L205.1,313.4L205.1,313.4z"/>
</g>
</svg>
