<svg viewBox="0 0 512 512" class="fl-svg" style="transform: scale(0.5);"><svg xmlns="http://www.w3.org/2000/svg" width="512" height="512" style="" viewBox="0 0 512 512" data-svgdocument="" id="_4LY3Qlg5KPG-izOJyGE96" class="fl-svgdocument" x="0" y="0" overflow="hidden"><defs id="_DwCqVSEp89XCohyHoiPZe" transform="matrix(0.7213087630472677, 0, 0, 0.7213087630472677, 29.5173249609975, 35.2001384137)"></defs><g id="_r7WNcs3IxdcxoeUG4ZGjs" transform="matrix(0.9226978969485438, 0, 0, 0.9226978969485438, 5.726736326515367, 31.91911379270092)"><path id="_QW2IL4XRB8J6UeaY7P_ES" fill="#8cb369" d="M87.562 19.984c-11.418 2.453-24.129 3.822-37.626 3.822s-26.208-1.368-37.626-3.822  C5.782 28.191 1.871 38.573 1.871 49.875c0 11.302 3.911 21.685 10.439 29.891c11.418-2.453 24.128-3.821 37.625-3.821  s26.208 1.368 37.626 3.821C94.089 71.56 98 61.177 98 49.875C98 38.573 94.09 28.191 87.562 19.984z" transform="matrix(2.4331319332122803, 0, 0, 2.4331319332122803, 149.7410888671875, 125.9347152709961)"></path><path id="_q7AvQDzsQ5NGJSzBh7o24" fill="#8cb369" d="M17.677 85.505c8.529 7.727 19.844 12.435 32.258 12.435c12.415 0 23.729-4.708 32.259-12.435  c-9.998-1.903-20.908-2.965-32.259-2.965S27.674 83.602 17.677 85.505z" transform="matrix(2.4331319332122803, 0, 0, 2.4331319332122803, 150.95863342285156, 125.47058868408203)"></path><path id="_8OIVLZaUruyYVIkqZVZj_" fill="#8cb369" d="M82.194 14.246C73.665 6.519 62.351 1.81 49.936 1.81c-12.416 0-23.73 4.708-32.259 12.435  c9.998 1.903 20.909 2.964 32.259 2.964S72.196 16.148 82.194 14.246z" transform="matrix(2.4331319332122803, 0, 0, 2.4331319332122803, 150.95863342285156, 125.46939086914062)"></path><path id="_94-dyWgyUT6Xy6Lr2mBpm" fill="#000000" d="M87.562 19.984c-11.418 2.453-24.129 3.822-37.626 3.822s-26.208-1.368-37.626-3.822  C5.782 28.191 1.871 38.573 1.871 49.875c0 11.302 3.911 21.685 10.439 29.891c11.418-2.453 24.128-3.821 37.625-3.821  s26.208 1.368 37.626 3.821C94.089 71.56 98 61.177 98 49.875C98 38.573 94.09 28.191 87.562 19.984z" transform="matrix(2.2460315227508545, 0, 0, 2.2460315227508545, 161.1363525390625, 135.19271850585938)"></path><path id="_d5YpYIOsPpusaFWeWuM4j" fill="#000000" d="M17.677 85.505c8.529 7.727 19.844 12.435 32.258 12.435c12.415 0 23.729-4.708 32.259-12.435  c-9.998-1.903-20.908-2.965-32.259-2.965S27.674 83.602 17.677 85.505z" transform="matrix(2.2460315227508545, 0, 0, 2.2460315227508545, 161.57235717773438, 134.76473999023438)"></path><path id="_owFcjxc_i-ms_0B-_8_h3" fill="#000000" d="M82.194 14.246C73.665 6.519 62.351 1.81 49.936 1.81c-12.416 0-23.73 4.708-32.259 12.435  c9.998 1.903 20.909 2.964 32.259 2.964S72.196 16.148 82.194 14.246z" transform="matrix(2.2460315227508545, 0, 0, 2.2460315227508545, 161.57235717773438, 134.76263427734375)"></path><path id="path4" d="m 39.006938 11.22586 c 1.184039 -0.94723 2.877207 -0.7239 4.128904 -0.23337 0.862657 0.38904 1.842032 1.01146 2.467881 1.78954 0.422871 0.49053 0.169148 1.16712 0.06766 1.72531 -0.211435 0.82883 -0.544214 1.34785 -0.530702 2.774 -0.713319 0.13371 -0.856255 0.26742 -1.093062 1.09625 -0.118404 0.64276 -0.495645 1.37847 -1.00309 1.49687 -0.415688 -0.0313 -0.46856 -0.19118 -0.874516 -0.25884 -0.507445 0.55819 0.236808 1.18404 0.541275 1.64074 0.862656 0.94723 0.778082 2.30042 1.133294 3.46754 0.104919 0.23524 -0.454776 0.41125 2.300417 3.56903 0.761167 1.40393 2.02978 2.38499 3.146159 3.46754 1.268612 1.18404 2.080524 2.7402 3.264562 4.00881 0.52436 0.57511 0.913401 1.4716 1.792973 1.53925 0.930315 -0.0169 1.250538 0.88583 2.180854 0.98732 1.932336 -0.33148 4.16318 -2.67936 5.718372 -4.81007 0.701925 -4.62731 7.34107 -11.18521 10.942757 -6.70957 3.049282 4.8606 -4.809537 9.06588 -9.318753 8.85101 -2.496398 0.90213 -3.257765 1.53943 -6.101378 4.5011 -0.794998 0.0846 0.170655 0.92688 -2.034836 1.84871 -0.422871 -0.0846 -0.913401 -0.16915 -1.065635 -0.62585 -0.236807 -0.62585 -0.964145 -0.64276 -1.420846 -1.03181 -1.657653 -2.04669 -4.02573 -3.3153 -6.089339 -4.9053 -1.200953 -0.74425 -1.640739 -2.18201 -2.571055 -3.17999 -0.49053 -0.54127 -0.913401 -1.13329 -1.319357 -1.74222 -2.34081 -3.5535 -2.078779 -1.44113 -2.586224 -2.38837 -0.841044 -1.50057 -3.673938 -0.1559 -4.488115 0.30553 -1.167124 0.33829 -2.668604 1.08486 -3.717324 1.84603 -1.133294 0.4567 -1.589994 1.64074 -2.097439 2.65563 -0.186063 0.38904 0.321382 0.59202 0.558189 0.795 2.148184 1.18403 4.02573 2.82477 6.224659 3.92424 0.608934 0.35521 1.420846 0.5751 1.708398 1.28552 0.744252 1.60691 0.541274 3.46754 1.200953 5.10828 0.439786 1.03181 0.862656 2.08053 0.997975 3.19691 0.118404 1.01489 0.794997 1.8268 0.896486 2.84169 0.287552 2.26659 1.674569 4.41477 3.788923 5.362 1.43776 0.74425 3.027755 1.09946 4.617749 1.31936 1.150208 0.16915 1.150208 2.04669 0.06766 2.31733 -1.809887 0.54127 -3.687433 0.99797 -5.598809 0.89649 -1.860632 -0.0846 -3.856582 0.47361 -5.59881 -0.37213 -0.270637 -1.33627 0.456701 -2.60489 0.507445 -3.92424 -0.608934 -3.60286 -3.788922 -6.10626 -4.448601 -9.70912 -0.253722 -1.13329 0.01692 -2.33424 -0.287552 -3.45062 -1.47159 -0.84574 -3.213818 -0.99798 -4.871472 -1.2517 -0.862656 -0.1184 -1.640739 -0.59202 -2.52031 -0.65968 -0.541274 0.54128 -0.52436 1.38702 -0.676593 2.09744 -0.169148 1.40393 -0.862657 2.63872 -1.285527 3.97499 -0.304467 1.08255 -1.167124 1.9452 -1.251698 3.09541 -0.101489 0.55819 -0.05074 1.26861 -0.608934 1.60691 -0.879571 0.5751 -1.945206 0.76117 -2.977011 0.69351 -1.556164 -0.10149 -3.01084 0.65968 -4.567004 0.62585 -2.52031 0.0507 -5.10828 0.0846 -7.4594407 1.09946 -0.7104234 0.35521 -1.2347832 1.03181 -2.0466952 1.16713 -1.6069091 0.33829 -3.0108402 1.21786 -4.4147713 2.02977 -0.4567004 0.32139 -1.113959 0.0576 -1.2601849 -0.35346 -0.57585256 -1.61871 1.5646519 -2.92801 2.968583 -4.21354 0.5751043 -0.50744 1.0656345 -1.09946 1.5054201 -1.72531 0.7442526 -1.06564 1.7422278 -1.91138 2.6725436 -2.82478 0.6596787 0.50745 1.1502087 1.18404 1.7760577 1.72531 0.4397847 0.40596 1.0825487 0.25373 1.5730787 0.0338 1.792972 -0.77808 3.5352 -1.7084 5.463491 -2.14818 0.913401 -0.23681 1.860632 0.0169 2.790947 -0.0846 0.828827 -1.35318 0.405956 -3.02775 0.304467 -4.51626 -0.270637 -0.10148 -0.541274 -0.20297 -0.811912 -0.28755 0.118404 -1.31935 0.253723 -2.63871 0.59202 -3.92424 0.355211 -1.26861 -0.811912 -2.24967 -0.930316 -3.46754 -0.219893 -1.47159 0.338296 -2.89244 0.862656 -4.22871 0.625849 -1.35318 1.370102 -2.70637 2.452651 -3.77201 1.437761 -1.86063 3.061585 -3.58594 4.753068 -5.22668 1.116379 -0.71042 2.012865 -1.77606 3.332222 -2.11435 1.420846 -0.4567 2.790947 -1.06564 4.228708 -1.48851 1.04872 -0.25372 1.826802 -1.08255 2.571055 -1.8268 0.389041 -0.93032 -0.135319 -2.01286 0.389041 -2.92627 0.4567 -0.81191 0.769655 -1.67032 1.43776 -2.38499 z" fill="#ffffff" transform="matrix(2.5778286457061768, 0, 0, 2.5778286457061768, 162.4684295654297, 154.5550079345703)" stroke="none" stroke-width="1"></path><path id="path6" d="m 77.23446 24.45326 c 0.676593 -0.25372 1.573079 -0.0677 1.945206 0.59202 0.4567 0.71042 0.08457 1.75914 -0.659679 2.09744 -0.676593 0.25372 -1.589994 0.23681 -2.063609 -0.38904 -0.608934 -0.77808 -0.06766 -1.96212 0.778082 -2.30042 z" fill="#ffffff" transform="matrix(2.5778286457061768, 0, 0, 2.5778286457061768, 164.3022918701172, 152.39588928222656)" stroke="none" stroke-width="1"></path></g><path id="_jXlHf8wlVEps4pkv_gZwl" fill="#8cb369" transform="matrix(0.6803230138483274, 0, 0, 0.6803230138483274, 265.56976217944714, 135.00336922249522)" text="Tennis" text-anchor="middle" font-size="100" letter-spacing="0" side="left" offset="0.5" dx="0" dy="0" space="preserve" href="" font-family="Holtwood One SC" font-scale="contain" x="0" y="0" data-fl-textpath="" d="M-219.284921875-75L-150.534921875-75L-150.534921875-50L-158.744921875-50Q-159.574921875-51.07 -160.644921875-52.2Q-161.71492187500002-53.32 -163.034921875-54.22Q-164.354921875-55.13 -165.914921875-55.69Q-167.484921875-56.25 -169.284921875-56.25L-169.284921875-56.25L-169.284921875-22.41L-163.034921875-21.19L-163.034921875 0L-206.784921875 0L-206.784921875-21.19L-200.534921875-22.41L-200.534921875-56.25Q-202.344921875-56.25 -203.904921875-55.69Q-205.464921875-55.13 -206.784921875-54.22Q-208.104921875-53.32 -209.174921875-52.2Q-210.254921875-51.07 -211.084921875-50L-211.084921875-50L-219.284921875-50L-219.284921875-75ZM-108.839296875-49.12L-108.839296875-38.53L-95.309296875-41.41L-95.309296875-27.49L-108.839296875-30.42L-108.839296875-19.63Q-105.909296875-19.63 -103.169296875-20.04Q-100.439296875-20.46 -98.099296875-21.19Q-95.749296875-21.92 -93.79929687500001-22.9Q-91.849296875-23.88 -90.429296875-25L-90.429296875-25L-83.739296875-25L-83.739296875 0L-144.089296875 0L-144.089296875-19.48L-138.229296875-20.61L-138.229296875-48.29L-144.089296875-49.41L-144.089296875-68.75L-83.739296875-68.75L-83.739296875-43.75L-90.429296875-43.75Q-91.849296875-44.82 -93.79929687500001-45.8Q-95.749296875-46.78 -98.099296875-47.51Q-100.439296875-48.24 -103.169296875-48.68Q-105.909296875-49.12 -108.839296875-49.12L-108.839296875-49.12ZM-28.9540625 0L-52.4440625-36.08L-52.4440625-20.61L-46.5340625-19.53L-46.5340625 0L-75.9240625 0L-75.9240625-19.48L-70.0640625-20.61L-70.0640625-48.39L-75.9240625-49.51L-75.9240625-68.75L-40.6740625-68.75L-17.184062500000003-31.69L-17.184062500000003-48.29L-23.044062500000003-49.51L-23.044062500000003-68.75L 6.295937499999994-68.75L 6.295937499999994-49.51L 0.4359374999999943-48.39L 0.4359374999999943-20.61L 6.295937499999994-19.48L 6.295937499999994 0L-28.9540625 0ZM 62.74515625 0L 39.25515625-36.08L 39.25515625-20.61L 45.16515625-19.53L 45.16515625 0L 15.77515625 0L 15.77515625-19.48L 21.63515625-20.61L 21.63515625-48.39L 15.77515625-49.51L 15.77515625-68.75L 51.02515625-68.75L 74.51515624999999-31.69L 74.51515624999999-48.29L 68.65515625-49.51L 68.65515625-68.75L 97.99515625-68.75L 97.99515625-49.51L 92.13515625-48.39L 92.13515625-20.61L 97.99515625-19.48L 97.99515625 0L 62.74515625 0ZM 107.474375-49.51L 107.474375-68.75L 148.584375-68.75L 148.584375-49.51L 142.724375-48.39L 142.724375-20.61L 148.584375-19.48L 148.584375 0L 107.474375 0L 107.474375-19.48L 113.334375-20.61L 113.334375-48.39L 107.474375-49.51ZM 217.8703125-21.63L 217.8703125-21.63Q 217.8703125-17.09  216.5803125-13.6Q 215.2803125-10.11  213.0603125-7.54Q 210.8403125-4.98  207.7903125-3.27Q 204.74031250000002-1.56  201.2203125-0.51Q 197.7003125 0.54  193.8703125 0.71Q 190.0403125 0.88  186.2303125 0.88L 186.2303125 0.88Q 180.9603125 0.88  176.7103125 0.63Q 172.4603125 0.39  169.1203125-0.44Q 165.7703125-1.27  163.2103125-2.27Q 160.6403125-3.27  158.6903125-4.25L 158.6903125-4.25L 158.6903125-21.19L 172.5103125-21.19Q 174.5603125-17.97  177.2003125-16.46Q 179.8303125-14.94  182.6203125-14.94L 182.6203125-14.94Q 183.4503125-14.94  184.4703125-15.09Q 185.5003125-15.23  186.3803125-16.02Q 187.2603125-16.8  187.8703125-18.43Q 188.4803125-20.07  188.4803125-23.05L 188.4803125-23.05Q 184.5203125-23.39  180.6403125-24.05Q 176.7603125-24.71  173.2203125-25.83Q 169.6803125-26.95  166.6503125-28.69Q 163.6203125-30.42  161.4003125-32.89Q 159.1803125-35.35  157.9103125-38.7Q 156.6403125-42.04  156.6403125-46.39L 156.6403125-46.39Q 156.6403125-51.37  157.9103125-55.1Q 159.1803125-58.84  161.3803125-61.52Q 163.5703125-64.21  166.5803125-65.97Q 169.5803125-67.72  173.0503125-68.75Q 176.5103125-69.78  180.2703125-70.19Q 184.0303125-70.61  187.7903125-70.61L 187.7903125-70.61Q 193.1103125-70.61  197.3403125-70.07Q 201.5603125-69.53  204.9103125-68.7Q 208.2503125-67.87  210.8203125-66.87Q 213.3803125-65.87  215.3803125-64.94L 215.3803125-64.94L 215.3803125-47.85L 200.5903125-47.85Q 198.7303125-51.37  196.3403125-52.98Q 193.9503125-54.59  191.4503125-54.59L 191.4503125-54.59Q 190.6203125-54.59  189.5503125-54.32Q 188.4803125-54.05  187.5503125-53.13Q 186.6203125-52.2  185.99031250000002-50.39Q 185.3503125-48.58  185.3503125-45.51L 185.3503125-45.51Q 193.4103125-45.21  199.49031250000002-43.8Q 205.5703125-42.38  209.6703125-39.58Q 213.7703125-36.77  215.8203125-32.35Q 217.8703125-27.93  217.8703125-21.63Z"></path><path id="_6wPFT55NrtK6LeO92vc5o" fill="#000000" transform="matrix(0.683562121894542, 0, 0, 0.683562121894542, 255.3489991667471, 428.78282046020246)" text="Cup" text-anchor="middle" font-size="100" letter-spacing="0" side="left" offset="0.5" dx="0" dy="0" space="preserve" href="" font-family="Holtwood One SC" font-scale="contain" x="0" y="0" data-fl-textpath="" d="M-91.40890625-38.38L-91.40890625-38.38Q-91.40890625-34.18 -90.32890625-31.15Q-89.25890625-28.13 -87.17890625-26.17Q-85.10890624999999-24.22 -82.10890624999999-23.29Q-79.09890625-22.36 -75.24890625-22.36L-75.24890625-22.36Q-70.65890625-22.36 -64.40890625-23.49Q-58.15890625-24.61 -50.588906249999994-26.95L-50.588906249999994-26.95L-50.588906249999994-4.1Q-58.44890624999999-1.46 -65.88890624999999-0.29Q-73.33890625000001 0.88 -80.56890625 0.88L-80.56890625 0.88Q-89.40890625 0.88 -97.09890625-1.32Q-104.78890625-3.52 -110.46890625-8.42Q-116.15890625-13.33 -119.42890625-20.8Q-122.70890625-28.27 -122.70890625-38.38L-122.70890625-38.38Q-122.70890625-48.24 -119.69890625-55.37Q-116.69890625-62.5 -111.20890625-67.11Q-105.70890625-71.73 -98.01890625-73.93Q-90.32890625-76.12 -80.95890625-76.12L-80.95890625-76.12Q-75.19890625-76.12 -70.57890625-75.54Q-65.96890625-74.95 -62.25890625-74.07Q-58.54890625-73.19 -55.68890625-72.09Q-52.82890625-71 -50.588906249999994-69.97L-50.588906249999994-69.97L-50.588906249999994-47.51L-65.27890625-47.51Q-67.76890625-51.03 -70.82890625-52.69Q-73.87890625-54.35 -77.09890625-54.35L-77.09890625-54.35Q-79.83890625000001-54.35 -82.39890625000001-53.27Q-84.95890625-52.2 -86.95890625-50.15Q-88.96890625-48.1 -90.18890625-45.14Q-91.40890625-42.19 -91.40890625-38.38ZM 40.47390625-49.51L 34.57390624999999-48.39Q 34.523906249999996-46.92  34.523906249999996-45.53Q 34.523906249999996-44.14  34.523906249999996-42.87L 34.523906249999996-42.87L 34.523906249999996-35.3Q 34.523906249999996-25.54  31.83390625-18.58Q 29.153906250000006-11.62  24.563906250000002-7.18Q 19.97390625-2.73  13.79390625-0.93Q 7.613906249999999 0.88  0.6839062499999997 0.88L 0.6839062499999997 0.88Q-7.326093749999998 0.88 -14.28609375-0.93Q-21.23609375-2.73 -26.39609375-7.2Q-31.54609375-11.67 -34.49609375-18.6Q-37.45609375-25.54 -37.45609375-35.3L-37.45609375-35.3L-37.45609375-48.39L-43.30609375-49.51L-43.30609375-68.75L-5.17609375-68.75L-5.17609375-49.51L-11.03609375-48.39L-11.03609375-42.58Q-11.03609375-41.41 -11.03609375-40.21Q-11.03609375-39.01 -11.006093749999998-37.99Q-10.986093750000002-36.96 -10.986093750000002-36.21Q-10.986093750000002-35.45 -10.986093750000002-35.21L-10.986093750000002-35.21Q-10.986093750000002-34.08 -10.936093749999998-32.59Q-10.88609375-31.1 -10.546093749999997-29.52Q-10.20609375-27.93 -9.49609375-26.39Q-8.78609375-24.85 -7.49609375-23.63Q-6.206093750000001-22.41 -4.226093749999997-21.66Q-2.24609375-20.9  0.6839062499999997-20.9L 0.6839062499999997-20.9Q 3.6139062499999994-20.9  5.643906250000001-21.66Q 7.663906249999997-22.41  8.96390625-23.66Q 10.25390625-24.9  10.983906249999997-26.46Q 11.71390625-28.03  12.033906250000001-29.61Q 12.353906250000001-31.2  12.423906250000002-32.69Q 12.50390625-34.18  12.50390625-35.3L 12.50390625-35.3Q 12.50390625-35.64  12.50390625-36.4Q 12.50390625-37.16  12.473906249999999-38.16Q 12.453906250000003-39.16  12.453906250000003-40.31Q 12.453906250000003-41.46  12.453906250000003-42.58L 12.453906250000003-42.58L 12.453906250000003-48.39L 6.593906250000003-49.51L 6.593906250000003-68.75L 40.47390625-68.75L 40.47390625-49.51ZM 48.099375-49.51L 48.099375-68.75L 88.08937499999999-68.75Q 95.89937499999999-68.75  101.639375-68.07Q 107.369375-67.38  111.399375-66.11Q 115.429375-64.84  117.989375-62.99Q 120.559375-61.13  121.999375-58.81Q 123.439375-56.49  123.949375-53.74Q 124.459375-50.98  124.459375-47.85L 124.459375-47.85Q 124.459375-44.63  123.849375-41.8Q 123.239375-38.96  121.579375-36.6Q 119.919375-34.23  117.019375-32.35Q 114.109375-30.47  109.549375-29.17Q 104.979375-27.88  98.539375-27.2Q 92.08937499999999-26.51  83.34937500000001-26.51L 83.34937500000001-26.51L 83.34937500000001-20.61L 89.209375-19.48L 89.209375 0L 48.099375 0L 48.099375-19.48L 53.959375-20.61L 53.959375-48.39L 48.099375-49.51ZM 83.34937500000001-57.03L 83.34937500000001-38.87Q 86.039375-38.87  88.209375-39.16Q 90.37937500000001-39.45  91.919375-40.43Q 93.459375-41.41  94.289375-43.26Q 95.11937499999999-45.12  95.11937499999999-48.29L 95.11937499999999-48.29Q 95.11937499999999-51.22  94.289375-52.93Q 93.459375-54.64  91.919375-55.57Q 90.37937500000001-56.49  88.209375-56.76Q 86.039375-57.03  83.34937500000001-57.03L 83.34937500000001-57.03Z"></path></svg></svg>