<?xml version="1.0" encoding="UTF-8"?><svg id="uuid-5dc92a4f-f615-4873-aa25-fde174e57a9e" xmlns="http://www.w3.org/2000/svg" viewBox="0 0 297.4068 352.9751"><g id="uuid-3074ba50-c31c-41cd-bec6-cbfc2501a0e7" transform="matrix(0.9226978969485438, 0, 0, 0.9226978969485438, 5.726736326515367, 31.91911379270092)"><path id="uuid-73f07da9-39bb-457c-8bbf-db4542d70b66" d="M230.8796,109.304c-25.6339,5.5071-54.1707,8.5806-84.4721,8.5806s-58.8382-3.0712-84.4721-8.5806c-14.6557,18.4251-23.436,41.7332-23.436,67.1067s8.7804,48.6838,23.436,67.1067c25.6339-5.5071,54.1685-8.5783,84.4698-8.5783s58.8382,3.0712,84.4721,8.5783c14.6556-18.4228,23.436-41.7332,23.436-67.1067s-8.7781-48.6816-23.4338-67.1067Z" style="fill:#8cb369;"/><path id="uuid-4d1c7d83-765e-40e4-ba98-603f1d0c66cb" d="M75.108,255.9734c19.148,17.3475,44.5507,27.9171,72.4207,27.9171s53.2727-10.5697,72.4229-27.9171c-22.446-4.2723-46.9394-6.6566-72.4229-6.6566s-49.977,2.3842-72.4207,6.6566Z" style="fill:#8cb369;"/><path id="uuid-a2ed3523-c9d0-4345-9c4f-9bf0d005ec46" d="M219.9516,95.9926c-19.148-17.3475-44.5484-27.9194-72.4207-27.9194s-53.2749,10.5697-72.4229,27.9171c22.446,4.2723,46.9417,6.6543,72.4229,6.6543s49.9747-2.382,72.4207-6.6521Z" style="fill:#8cb369;"/><path id="uuid-b7c4193f-5cf4-4efb-84ef-5061b72ab953" d="M226.2775,114.3964c-23.6628,5.0836-50.0051,7.9207-77.9764,7.9207s-54.3137-2.8351-77.9764-7.9207c-13.5287,17.0083-21.6339,38.524-21.6339,61.9464s8.1052,44.9402,21.6339,61.9464c23.6628-5.0836,50.0031-7.9187,77.9744-7.9187s54.3137,2.8351,77.9765,7.9187c13.5287-17.0062,21.6339-38.524,21.6339-61.9464s-8.1031-44.9381-21.6318-61.9464Z"/><path id="uuid-011ffacd-b917-4e11-b43f-1fc9c671479d" d="M81.8496,249.7877c17.6756,16.0135,41.1249,25.7704,66.8518,25.7704s49.1762-9.7569,66.8538-25.7704c-20.7199-3.9438-43.3299-6.1447-66.8538-6.1447s-46.1339,2.2009-66.8518,6.1447Z"/><path id="uuid-00320bf1-de3a-4925-a956-c72e2f2d6b74" d="M215.5551,102.108c-17.6756-16.0135-41.1228-25.7725-66.8518-25.7725s-49.1783,9.7569-66.8538,25.7704c20.7199,3.9438,43.332,6.1426,66.8538,6.1426s46.1318-2.1988,66.8518-6.1405Z"/><path id="uuid-545412a7-7fe6-4d71-8fca-e2fc3b3ed2b4" d="M138.8226,117.5482c2.8163-2.253,6.8436-1.7218,9.8208-.5551,2.0519,.9254,4.3814,2.4058,5.87,4.2565,1.0058,1.1668,.4023,2.7761,.1609,4.1037-.5029,1.9714-1.2944,3.2059-1.2623,6.5981-1.6967,.318-2.0367,.6361-2.5999,2.6075-.2816,1.5288-1.1789,3.2788-2.3859,3.5604-.9887-.0744-1.1145-.4547-2.0801-.6157-1.207,1.3277,.5633,2.8163,1.2875,3.9026,2.0519,2.253,1.8507,5.4717,2.6956,8.2477,.2496,.5595-1.0817,.9782,5.4717,8.4891,1.8105,3.3393,4.828,5.6728,7.4833,8.2477,3.0175,2.8163,4.9486,6.5177,7.7649,9.5352,1.2472,1.3679,2.1726,3.5003,4.2647,3.6612,2.2128-.0402,2.9745,2.107,5.1873,2.3484,4.5962-.7884,9.9024-6.373,13.6015-11.441,1.6696-11.0063,17.4612-26.6047,26.028-15.9591,7.2529,11.5612-11.4398,21.5637-22.1652,21.0526-5.9378,2.1458-7.7488,3.6616-14.5125,10.7061-1.8909,.2012,.4059,2.2046-4.84,4.3973-1.0058-.2012-2.1726-.4023-2.5347-1.4886-.5633-1.4886-2.2933-1.5288-3.3796-2.4542-3.9428-4.8682-9.5754-7.8856-14.4838-11.6675-2.8565-1.7702-3.9026-5.19-6.1154-7.5638-1.1668-1.2874-2.1726-2.6956-3.1382-4.144-5.5677-8.4522-4.9445-3.4278-6.1515-5.6809-2.0005-3.5692-8.7387-.3708-10.6752,.7267-2.7761,.8046-6.3474,2.5804-8.8419,4.3909-2.6956,1.0863-3.7819,3.9026-4.9889,6.3166-.4426,.9253,.7644,1.4081,1.3277,1.8909,5.1096,2.8163,9.5754,6.7189,14.8057,9.334,1.4484,.8449,3.3796,1.3679,4.0635,3.0577,1.7702,3.8221,1.2875,8.2477,2.8565,12.1503,1.0461,2.4542,2.0519,4.9487,2.3737,7.604,.2816,2.414,1.8909,4.3452,2.1323,6.7591,.684,5.3912,3.9831,10.5008,9.0122,12.7538,3.4198,1.7702,7.2017,2.6151,10.9836,3.1382,2.7358,.4023,2.7358,4.8682,.1609,5.5119-4.3049,1.2874-8.7708,2.3737-13.3171,2.1323-4.4256-.2012-9.1731,1.1265-13.3171-.8851-.6437-3.1784,1.0863-6.1959,1.207-9.334-1.4484-8.5696-9.0122-14.5241-10.5813-23.0937-.6035-2.6956,.0402-5.5521-.684-8.2075-3.5003-2.0116-7.6442-2.3737-11.5871-2.9772-2.0519-.2816-3.9026-1.4081-5.9947-1.5691-1.2874,1.2875-1.2472,3.2991-1.6093,4.9889-.4023,3.3393-2.0519,6.2763-3.0577,9.4547-.7242,2.5749-2.7761,4.6268-2.9772,7.3626-.2414,1.3277-.1207,3.0175-1.4484,3.8221-2.0921,1.3679-4.6268,1.8105-7.081,1.6495-3.7014-.2414-7.1615,1.5691-10.8629,1.4886-5.9947,.1206-12.1503,.2012-17.7427,2.6151-1.6898,.8449-2.937,2.4542-4.8682,2.7761-3.8221,.8046-7.1615,2.8968-10.5008,4.8279-1.0863,.7644-2.6496,.137-2.9974-.8407-1.3697-3.8502,3.7216-6.9644,7.0609-10.0221,1.3679-1.207,2.5347-2.6151,3.5807-4.1038,1.7702-2.5347,4.144-4.5463,6.3568-6.7189,1.5691,1.207,2.7358,2.8163,4.2245,4.1038,1.0461,.9656,2.5749,.6035,3.7417,.0804,4.2647-1.8507,8.4087-4.0635,12.9952-5.1096,2.1726-.5633,4.4256,.0402,6.6384-.2012,1.9714-3.2186,.9656-7.2017,.7242-10.7422-.6437-.2414-1.2874-.4828-1.9312-.684,.2816-3.1382,.6035-6.2763,1.4082-9.334,.8449-3.0175-1.9312-5.351-2.2128-8.2477-.523-3.5003,.8047-6.8798,2.0519-10.0582,1.4886-3.2186,3.2589-6.4373,5.8338-8.9719,3.4198-4.4256,7.2822-8.5294,11.3054-12.432,2.6554-1.6898,4.7877-4.2245,7.9259-5.0291,3.3796-1.0863,6.6384-2.5347,10.0582-3.5405,2.4944-.6035,4.3452-2.5749,6.1154-4.3451,.9254-2.2128-.3219-4.7877,.9254-6.9603,1.0863-1.9312,1.8307-3.973,3.4198-5.6728v.0002Z" style="fill:#fff;"/><path id="uuid-1ec48538-dffa-4009-922f-f1a371602f73" d="M231.4411,147.0182c1.6093-.6035,3.7417-.161,4.6268,1.4082,1.0863,1.6898,.2012,4.1842-1.5691,4.9889-1.6093,.6035-3.7819,.5633-4.9084-.9254-1.4484-1.8507-.1609-4.667,1.8507-5.4717h0Z" style="fill:#fff;"/></g><path id="uuid-fb5fbd2e-26dc-4a32-b94a-c6618b57c45b" d="M0,0H46.7722V17.0081h-5.5854c-.3765-.4853-.8073-.9842-1.2926-1.4967-.4853-.508-1.0273-.9661-1.626-1.3743-.5987-.4127-1.2518-.7461-1.9593-1.0001-.7121-.254-1.4763-.381-2.2927-.381h0v23.0221l4.252,.83v14.416H8.504v-14.416l4.252-.83V12.7561c-.8209,0-1.5852,.127-2.2927,.381-.7075,.254-1.3606,.5873-1.9593,1.0001-.5987,.4082-1.1407,.8663-1.626,1.3743-.4898,.5125-.923,1.0114-1.2994,1.4967H0V0ZM75.1387,17.6068v7.2046l9.2048-1.9593v9.4701l-9.2048-1.9933v7.3407c1.3289,0,2.6147-.093,3.8574-.2789,1.2382-.1905,2.3879-.4513,3.4492-.7824,1.0658-.3311,2.041-.7189,2.9254-1.1634,.8844-.4445,1.6486-.9207,2.2927-1.4287h4.5514v17.0081H51.1573v-13.2527l3.9867-.7688V18.1714l-3.9867-.762V4.252h41.0575V21.2601h-4.5514c-.644-.4853-1.4083-.9502-2.2927-1.3947-.8844-.4445-1.8596-.8323-2.9254-1.1634-1.0613-.3311-2.2111-.5964-3.4492-.796-1.2427-.1996-2.5285-.2993-3.8574-.2993h0Zm54.3478,33.4175l-15.9808-24.5461v10.5246l4.0207,.7347v13.2867h-19.9947v-13.2527l3.9867-.7688V18.1034l-3.9867-.762V4.252h23.9814l15.9808,25.2128v-11.2934l-3.9867-.83V4.252h19.9607v13.0894l-3.9867,.762v18.8994l3.9867,.7688v13.2527h-23.9814Zm62.3851,0l-15.9808-24.5461v10.5246l4.0207,.7347v13.2867h-19.9947v-13.2527l3.9867-.7688V18.1034l-3.9867-.762V4.252h23.9814l15.9808,25.2128v-11.2934l-3.9867-.83V4.252h19.9607v13.0894l-3.9867,.762v18.8994l3.9867,.7688v13.2527h-23.9814Zm30.4303-33.6828V4.252h27.9681v13.0894l-3.9867,.762v18.8994l3.9867,.7688v13.2527h-27.9681v-13.2527l3.9867-.7688V18.1034l-3.9867-.762Zm75.1049,18.9674h0c0,2.0591-.2925,3.8801-.8776,5.463-.5896,1.5829-1.3878,2.9571-2.3947,4.1228-1.0069,1.1611-2.202,2.1294-3.5853,2.905-1.3833,.7756-2.8732,1.4015-4.4697,1.8777-1.5965,.4762-3.2633,.7529-5.0004,.83-1.7371,.0771-3.4697,.1157-5.1977,.1157h0c-2.3902,0-4.5491-.0567-6.4767-.1701-1.9276-.1089-3.6488-.3515-5.1636-.7279-1.5194-.3764-2.8596-.7914-4.0207-1.245-1.1656-.4535-2.1906-.9026-3.0751-1.347h0v-11.5247h9.4021c.9298,1.4604,1.9933,2.5331,3.1907,3.2179,1.1928,.6894,2.4219,1.0341,3.6873,1.0341h0c.3764,0,.796-.034,1.2586-.102,.4672-.0635,.9003-.2744,1.2994-.6327,.3991-.3538,.737-.9003,1.0137-1.6396,.2767-.7438,.415-1.7915,.415-3.1431h0c-1.7961-.1542-3.574-.381-5.3337-.6803-1.7598-.2993-3.4424-.703-5.048-1.211-1.6056-.508-3.0955-1.1565-4.4697-1.9457-1.3743-.7846-2.5648-1.7371-3.5717-2.8574-1.0069-1.1157-1.7983-2.4333-2.3743-3.9527-.576-1.5149-.864-3.2587-.864-5.2317h0c0-2.2587,.288-4.2339,.864-5.9256,.576-1.6963,1.3629-3.1522,2.3607-4.3677,.9933-1.22,2.1725-2.2292,3.5377-3.0274,1.3606-.7937,2.8279-1.4241,4.4017-1.8913,1.5693-.4672,3.2066-.7937,4.9119-.9797,1.7053-.1905,3.4107-.2857,5.116-.2857h0c2.4129,0,4.5786,.1225,6.4971,.3674,1.914,.2449,3.6307,.5556,5.15,.932,1.5148,.3764,2.8551,.7914,4.0207,1.245,1.1611,.4535,2.1952,.8912,3.1023,1.313h0v11.6267h-10.062c-.8436-1.5965-1.8074-2.7598-2.8914-3.4901-1.084-.7302-2.1929-1.0953-3.3268-1.0953h0c-.3765,0-.8073,.0612-1.2926,.1837-.4853,.1225-.9388,.3923-1.3606,.8096-.4218,.4218-.7756,1.0432-1.0613,1.8641-.2903,.8209-.4354,1.9276-.4354,3.32h0c3.6556,.1361,6.8622,.5238,9.6198,1.1634,2.7576,.644,5.0661,1.601,6.9257,2.871,1.8595,1.2745,3.2542,2.9141,4.184,4.9187,.9298,2.0047,1.3947,4.4357,1.3947,7.2931Z" style="fill:#8cb369;"/><path id="uuid-e9b00cad-ed7b-4937-a7a2-594ed12ffc5d" d="M85.6214,326.1384h0c0,1.914,.2461,3.5614,.7382,4.9422,.4876,1.3762,1.2053,2.511,2.1532,3.4041,.9433,.8886,2.0985,1.5449,3.4657,1.9687,1.3717,.4238,2.9348,.6357,4.6892,.6357h0c2.0917,0,4.5616-.2575,7.4098-.7724,2.8482-.5104,5.9971-1.2988,9.4468-2.3651h0v15.6194c-3.5819,1.2031-7.068,2.0712-10.4585,2.6044-3.395,.5332-6.7399,.7998-10.0347,.7998h0c-4.0285,0-7.7949-.5013-11.2993-1.5038-3.5044-1.0026-6.5508-2.6203-9.1392-4.8533-2.593-2.2375-4.6346-5.0584-6.1247-8.4625-1.4947-3.4041-2.2421-7.4098-2.2421-12.017h0c0-4.4933,.6858-8.3645,2.0575-11.6137,1.3671-3.2492,3.3016-5.9242,5.8034-8.025,2.5064-2.1054,5.5118-3.6593,9.0162-4.6619,3.5044-.998,7.3916-1.497,11.6616-1.497h0c2.6249,0,4.99,.1322,7.0954,.3965,2.1008,.2689,3.9966,.6038,5.6872,1.0048,1.6907,.401,3.1877,.8522,4.491,1.3535,1.3033,.4967,2.4654,.9798,3.4862,1.4491h0v15.3528h-10.0415c-1.1347-1.6041-2.3993-2.7844-3.7938-3.5409-1.3899-.7565-2.8186-1.1347-4.2859-1.1347h0c-1.2486,0-2.4563,.2461-3.6229,.7382-1.1666,.4876-2.2056,1.1985-3.117,2.1327-.916,.9342-1.6519,2.0758-2.2079,3.4246-.556,1.3443-.8339,2.8846-.8339,4.6209Zm90.1501-7.608l-4.033,.7656c-.0228,.6699-.0342,1.3216-.0342,1.955v1.8183h0v5.1746c0,4.4477-.6129,8.2574-1.8388,11.4292-1.2213,3.1717-2.8778,5.7693-4.9695,7.7926-2.0917,2.0279-4.5457,3.452-7.362,4.2723-2.8163,.8248-5.8034,1.2372-8.9615,1.2372h0c-3.6502,0-7.0612-.4124-10.2329-1.2372-3.1672-.8203-5.9265-2.2489-8.2779-4.2859-2.3469-2.037-4.1925-4.6346-5.5369-7.7926-1.3489-3.1626-2.0233-6.9678-2.0233-11.4155h0v-8.9478l-3.9988-.7656v-13.1517h26.0642v13.1517l-4.0057,.7656v5.5915c0,.5468,.0068,1.0527,.0205,1.5175,.0091,.4694,.0137,.875,.0137,1.2167,0,.3463,0,.5742,0,.6836h0c0,.5149,.0114,1.1119,.0342,1.7909,.0228,.679,.1116,1.3785,.2666,2.0985,.1549,.7246,.3942,1.4378,.7177,2.1396s.7793,1.3307,1.3671,1.8866c.5879,.556,1.3329,1.0048,2.2352,1.3466,.9023,.3463,2.0211,.5195,3.3563,.5195h0c1.3352,0,2.4654-.1732,3.3905-.5195,.9205-.3418,1.677-.7975,2.2694-1.3671,.5879-.5651,1.0481-1.2031,1.3808-1.914,.3327-.7155,.5719-1.4332,.7177-2.1532,.1458-.7246,.2347-1.4264,.2666-2.1054,.0365-.679,.0547-1.2737,.0547-1.7841h0v-.7519c0-.3463-.0068-.7474-.0205-1.2031-.0091-.4557-.0137-.9456-.0137-1.4697v-1.5517h0v-3.9715l-4.0057-.7656v-13.1517h23.1591v13.1517Zm5.2125,0v-13.1517h27.3356c3.5591,0,6.6465,.1549,9.2623,.4648,2.6112,.3144,4.8351,.761,6.6716,1.3398,1.8365,.5788,3.3381,1.2897,4.5047,2.1327,1.1712,.8476,2.0849,1.8,2.7411,2.8573,.6562,1.0572,1.1005,2.2125,1.3329,3.4657,.2324,1.2578,.3486,2.5998,.3486,4.0262h0c0,1.4674-.139,2.8459-.417,4.1356-.278,1.2942-.7952,2.4791-1.5517,3.5545-.7565,1.08-1.7955,2.0484-3.117,2.9051-1.3261,.8567-3.0282,1.5813-5.1062,2.1737-2.0826,.5879-4.5913,1.0367-7.526,1.3466-2.9393,.3144-6.4004,.4717-10.3833,.4717h0v4.033l4.0057,.7724v13.3158h-28.1012v-13.3158l4.0057-.7724v-18.9894l-4.0057-.7656Zm24.0956-5.1404v12.4135c1.2259,0,2.3332-.0661,3.3221-.1982,.9889-.1322,1.8342-.4215,2.536-.8681s1.2418-1.0914,1.62-1.9345c.3782-.8476,.5674-1.9937,.5674-3.4383h0c0-1.3352-.1891-2.3925-.5674-3.1717-.3782-.7793-.9182-1.3808-1.62-1.8046-.7018-.4193-1.5471-.6904-2.536-.8134-.9889-.123-2.0963-.1846-3.3221-.1846h0Z"/></svg>