<?xml version="1.0" encoding="utf-8"?>
<!-- Generator: Adobe Illustrator 26.3.1, SVG Export Plug-In . SVG Version: 6.00 Build 0)  -->
<svg version="1.1" id="_4LY3Qlg5KPG-izOJyGE96" xmlns="http://www.w3.org/2000/svg" xmlns:xlink="http://www.w3.org/1999/xlink"
	 x="0px" y="0px" viewBox="0 0 512 512" style="enable-background:new 0 0 512 512;" xml:space="preserve">
<style type="text/css">
	.st0{fill:#8CB369;}
	.st1{fill:#FFFFFF;}
</style>
<g id="_r7WNcs3IxdcxoeUG4ZGjs" transform="matrix(0.9226978969485438, 0, 0, 0.9226978969485438, 5.726736326515367, 31.91911379270092)">
	<path id="_QW2IL4XRB8J6UeaY7P_ES" class="st0" d="M362.8,174.6c-27.8,6-58.7,9.3-91.5,9.3s-63.8-3.3-91.5-9.3
		c-15.9,20-25.4,45.2-25.4,72.7s9.5,52.8,25.4,72.7c27.8-6,58.7-9.3,91.5-9.3s63.8,3.3,91.5,9.3c15.9-20,25.4-45.2,25.4-72.7
		S378.7,194.5,362.8,174.6z"/>
	<path id="_q7AvQDzsQ5NGJSzBh7o24" class="st0" d="M194,333.5c20.8,18.8,48.3,30.3,78.5,30.3c30.2,0,57.7-11.5,78.5-30.3
		c-24.3-4.6-50.9-7.2-78.5-7.2S218.3,328.9,194,333.5z"/>
	<path id="_8OIVLZaUruyYVIkqZVZj_" class="st0" d="M350.9,160.1c-20.8-18.8-48.3-30.3-78.5-30.3c-30.2,0-57.7,11.5-78.5,30.3
		c24.3,4.6,50.9,7.2,78.5,7.2C300.1,167.3,326.6,164.8,350.9,160.1z"/>
	<path id="_94-dyWgyUT6Xy6Lr2mBpm" d="M357.8,180.1c-25.6,5.5-54.2,8.6-84.5,8.6c-30.3,0-58.9-3.1-84.5-8.6
		c-14.7,18.4-23.4,41.8-23.4,67.1s8.8,48.7,23.4,67.1c25.6-5.5,54.2-8.6,84.5-8.6s58.9,3.1,84.5,8.6c14.7-18.4,23.4-41.8,23.4-67.1
		S372.5,198.5,357.8,180.1z"/>
	<path id="_d5YpYIOsPpusaFWeWuM4j" d="M201.3,326.8c19.2,17.4,44.6,27.9,72.5,27.9c27.9,0,53.3-10.6,72.5-27.9
		c-22.5-4.3-47-6.7-72.5-6.7C248.2,320.2,223.7,322.5,201.3,326.8z"/>
	<path id="_owFcjxc_i-ms_0B-_8_h3" d="M346.2,166.8c-19.2-17.4-44.6-27.9-72.5-27.9c-27.9,0-53.3,10.6-72.5,27.9
		c22.5,4.3,47,6.7,72.5,6.7S323.7,171,346.2,166.8z"/>
	<path id="path4" class="st1" d="M263,183.5c3.1-2.4,7.4-1.9,10.6-0.6c2.2,1,4.7,2.6,6.4,4.6c1.1,1.3,0.4,3,0.2,4.4
		c-0.5,2.1-1.4,3.5-1.4,7.2c-1.8,0.3-2.2,0.7-2.8,2.8c-0.3,1.7-1.3,3.6-2.6,3.9c-1.1-0.1-1.2-0.5-2.3-0.7c-1.3,1.4,0.6,3.1,1.4,4.2
		c2.2,2.4,2,5.9,2.9,8.9c0.3,0.6-1.2,1.1,5.9,9.2c2,3.6,5.2,6.1,8.1,8.9c3.3,3.1,5.4,7.1,8.4,10.3c1.4,1.5,2.4,3.8,4.6,4
		c2.4,0,3.2,2.3,5.6,2.5c5-0.9,10.7-6.9,14.7-12.4c1.8-11.9,18.9-28.8,28.2-17.3c7.9,12.5-12.4,23.4-24,22.8
		c-6.4,2.3-8.4,4-15.7,11.6c-2,0.2,0.4,2.4-5.2,4.8c-1.1-0.2-2.4-0.4-2.7-1.6c-0.6-1.6-2.5-1.7-3.7-2.7c-4.3-5.3-10.4-8.5-15.7-12.6
		c-3.1-1.9-4.2-5.6-6.6-8.2c-1.3-1.4-2.4-2.9-3.4-4.5c-6-9.2-5.4-3.7-6.7-6.2c-2.2-3.9-9.5-0.4-11.6,0.8c-3,0.9-6.9,2.8-9.6,4.8
		c-2.9,1.2-4.1,4.2-5.4,6.8c-0.5,1,0.8,1.5,1.4,2c5.5,3.1,10.4,7.3,16,10.1c1.6,0.9,3.7,1.5,4.4,3.3c1.9,4.1,1.4,8.9,3.1,13.2
		c1.1,2.7,2.2,5.4,2.6,8.2c0.3,2.6,2,4.7,2.3,7.3c0.7,5.8,4.3,11.4,9.8,13.8c3.7,1.9,7.8,2.8,11.9,3.4c3,0.4,3,5.3,0.2,6
		c-4.7,1.4-9.5,2.6-14.4,2.3c-4.8-0.2-9.9,1.2-14.4-1c-0.7-3.4,1.2-6.7,1.3-10.1c-1.6-9.3-9.8-15.7-11.5-25c-0.7-2.9,0-6-0.7-8.9
		c-3.8-2.2-8.3-2.6-12.6-3.2c-2.2-0.3-4.2-1.5-6.5-1.7c-1.4,1.4-1.4,3.6-1.7,5.4c-0.4,3.6-2.2,6.8-3.3,10.2c-0.8,2.8-3,5-3.2,8
		c-0.3,1.4-0.1,3.3-1.6,4.1c-2.3,1.5-5,2-7.7,1.8c-4-0.3-7.8,1.7-11.8,1.6c-6.5,0.1-13.2,0.2-19.2,2.8c-1.8,0.9-3.2,2.7-5.3,3
		c-4.1,0.9-7.8,3.1-11.4,5.2c-1.2,0.8-2.9,0.1-3.2-0.9c-1.5-4.2,4-7.5,7.7-10.9c1.5-1.3,2.7-2.8,3.9-4.4c1.9-2.7,4.5-4.9,6.9-7.3
		c1.7,1.3,3,3.1,4.6,4.4c1.1,1,2.8,0.7,4.1,0.1c4.6-2,9.1-4.4,14.1-5.5c2.4-0.6,4.8,0,7.2-0.2c2.1-3.5,1-7.8,0.8-11.6
		c-0.7-0.3-1.4-0.5-2.1-0.7c0.3-3.4,0.7-6.8,1.5-10.1c0.9-3.3-2.1-5.8-2.4-8.9c-0.6-3.8,0.9-7.5,2.2-10.9c1.6-3.5,3.5-7,6.3-9.7
		c3.7-4.8,7.9-9.2,12.3-13.5c2.9-1.8,5.2-4.6,8.6-5.5c3.7-1.2,7.2-2.7,10.9-3.8c2.7-0.7,4.7-2.8,6.6-4.7c1-2.4-0.3-5.2,1-7.5
		C260.5,187.5,261.3,185.3,263,183.5L263,183.5z"/>
	<path id="path6" class="st1" d="M363.4,215.4c1.7-0.7,4.1-0.2,5,1.5c1.2,1.8,0.2,4.5-1.7,5.4c-1.7,0.7-4.1,0.6-5.3-1
		C359.8,219.4,361.2,216.3,363.4,215.4L363.4,215.4z"/>
</g>
<path id="_jXlHf8wlVEps4pkv_gZwl" class="st0" d="M116.4,84h46.8v17h-5.6c-0.4-0.5-0.8-1-1.3-1.5c-0.5-0.5-1-1-1.6-1.4
	c-0.6-0.4-1.3-0.7-2-1c-0.7-0.3-1.5-0.4-2.3-0.4l0,0v23l4.3,0.8V135h-29.8v-14.4l4.3-0.8v-23c-0.8,0-1.6,0.1-2.3,0.4
	c-0.7,0.3-1.4,0.6-2,1c-0.6,0.4-1.1,0.9-1.6,1.4c-0.5,0.5-0.9,1-1.3,1.5l0,0h-5.6V84z M191.5,101.6v7.2l9.2-2v9.5l-9.2-2v7.3
	c1.3,0,2.6-0.1,3.9-0.3c1.2-0.2,2.4-0.5,3.4-0.8c1.1-0.3,2-0.7,2.9-1.2c0.9-0.4,1.6-0.9,2.3-1.4l0,0h4.6v17h-41.1v-13.3l4-0.8v-18.8
	l-4-0.8V88.2h41.1v17H204c-0.6-0.5-1.4-1-2.3-1.4c-0.9-0.4-1.9-0.8-2.9-1.2c-1.1-0.3-2.2-0.6-3.4-0.8
	C194.1,101.7,192.9,101.6,191.5,101.6L191.5,101.6z M245.9,135l-16-24.5V121l4,0.7V135h-20v-13.3l4-0.8v-18.9l-4-0.8V88.2h24
	l16,25.2v-11.3l-4-0.8V88.2h20v13.1l-4,0.8V121l4,0.8V135H245.9z M308.3,135l-16-24.5V121l4,0.7V135h-20v-13.3l4-0.8v-18.9l-4-0.8
	V88.2h24l16,25.2v-11.3l-4-0.8V88.2h20v13.1l-4,0.8V121l4,0.8V135H308.3z M338.7,101.3V88.2h28v13.1l-4,0.8V121l4,0.8V135h-28v-13.3
	l4-0.8v-18.9L338.7,101.3z M413.8,120.3L413.8,120.3c0,2.1-0.3,3.9-0.9,5.5c-0.6,1.6-1.4,3-2.4,4.1c-1,1.2-2.2,2.1-3.6,2.9
	s-2.9,1.4-4.5,1.9s-3.3,0.8-5,0.8s-3.5,0.1-5.2,0.1l0,0c-2.4,0-4.5-0.1-6.5-0.2c-1.9-0.1-3.6-0.4-5.2-0.7c-1.5-0.4-2.9-0.8-4-1.2
	c-1.2-0.5-2.2-0.9-3.1-1.3l0,0v-11.5h9.4c0.9,1.5,2,2.5,3.2,3.2c1.2,0.7,2.4,1,3.7,1l0,0c0.4,0,0.8,0,1.3-0.1
	c0.5-0.1,0.9-0.3,1.3-0.6c0.4-0.4,0.7-0.9,1-1.6c0.3-0.7,0.4-1.8,0.4-3.1l0,0c-1.8-0.2-3.6-0.4-5.3-0.7c-1.8-0.3-3.4-0.7-5-1.2
	c-1.6-0.5-3.1-1.2-4.5-1.9c-1.4-0.8-2.6-1.7-3.6-2.9c-1-1.1-1.8-2.4-2.4-4c-0.6-1.5-0.9-3.3-0.9-5.2l0,0c0-2.3,0.3-4.2,0.9-5.9
	c0.6-1.7,1.4-3.2,2.4-4.4c1-1.2,2.2-2.2,3.5-3c1.4-0.8,2.8-1.4,4.4-1.9c1.6-0.5,3.2-0.8,4.9-1c1.7-0.2,3.4-0.3,5.1-0.3l0,0
	c2.4,0,4.6,0.1,6.5,0.4c1.9,0.2,3.6,0.6,5.2,0.9c1.5,0.4,2.9,0.8,4,1.2c1.2,0.5,2.2,0.9,3.1,1.3l0,0v11.6H402
	c-0.8-1.6-1.8-2.8-2.9-3.5c-1.1-0.7-2.2-1.1-3.3-1.1l0,0c-0.4,0-0.8,0.1-1.3,0.2c-0.5,0.1-0.9,0.4-1.4,0.8c-0.4,0.4-0.8,1-1.1,1.9
	c-0.3,0.8-0.4,1.9-0.4,3.3l0,0c3.7,0.1,6.9,0.5,9.6,1.2c2.8,0.6,5.1,1.6,6.9,2.9c1.9,1.3,3.3,2.9,4.2,4.9
	C413.3,115,413.8,117.4,413.8,120.3z"/>
<path id="_6wPFT55NrtK6LeO92vc5o" d="M192.9,402.5L192.9,402.5c0,1.9,0.2,3.6,0.7,4.9c0.5,1.4,1.2,2.5,2.2,3.4
	c0.9,0.9,2.1,1.5,3.5,2c1.4,0.4,2.9,0.6,4.7,0.6l0,0c2.1,0,4.6-0.3,7.4-0.8c2.8-0.5,6-1.3,9.4-2.4l0,0V426
	c-3.6,1.2-7.1,2.1-10.5,2.6c-3.4,0.5-6.7,0.8-10,0.8l0,0c-4,0-7.8-0.5-11.3-1.5c-3.5-1-6.6-2.6-9.1-4.9c-2.6-2.2-4.6-5.1-6.1-8.5
	c-1.5-3.4-2.2-7.4-2.2-12l0,0c0-4.5,0.7-8.4,2.1-11.6c1.4-3.2,3.3-5.9,5.8-8c2.5-2.1,5.5-3.7,9-4.7c3.5-1,7.4-1.5,11.7-1.5l0,0
	c2.6,0,5,0.1,7.1,0.4c2.1,0.3,4,0.6,5.7,1c1.7,0.4,3.2,0.9,4.5,1.4c1.3,0.5,2.5,1,3.5,1.4l0,0v15.4h-10c-1.1-1.6-2.4-2.8-3.8-3.5
	c-1.4-0.8-2.8-1.1-4.3-1.1l0,0c-1.2,0-2.5,0.2-3.6,0.7c-1.2,0.5-2.2,1.2-3.1,2.1c-0.9,0.9-1.7,2.1-2.2,3.4
	C193.1,399.3,192.9,400.8,192.9,402.5z M283,394.9l-4,0.8c0,0.7,0,1.3,0,2c0,0.6,0,1.2,0,1.8l0,0v5.2c0,4.4-0.6,8.3-1.8,11.4
	c-1.2,3.2-2.9,5.8-5,7.8c-2.1,2-4.5,3.5-7.4,4.3c-2.8,0.8-5.8,1.2-9,1.2l0,0c-3.7,0-7.1-0.4-10.2-1.2c-3.2-0.8-5.9-2.2-8.3-4.3
	c-2.3-2-4.2-4.6-5.5-7.8c-1.3-3.2-2-7-2-11.4l0,0v-8.9l-4-0.8v-13.2h26.1v13.2l-4,0.8v4c0,0.5,0,1.1,0,1.6s0,1.1,0,1.5
	c0,0.5,0,0.9,0,1.2c0,0.3,0,0.6,0,0.7l0,0c0,0.5,0,1.1,0,1.8c0,0.7,0.1,1.4,0.3,2.1c0.2,0.7,0.4,1.4,0.7,2.1
	c0.3,0.7,0.8,1.3,1.4,1.9c0.6,0.6,1.3,1,2.2,1.3c0.9,0.3,2,0.5,3.4,0.5l0,0c1.3,0,2.5-0.2,3.4-0.5c0.9-0.3,1.7-0.8,2.3-1.4
	c0.6-0.6,1-1.2,1.4-1.9c0.3-0.7,0.6-1.4,0.7-2.2c0.1-0.7,0.2-1.4,0.3-2.1c0-0.7,0.1-1.3,0.1-1.8l0,0c0-0.2,0-0.4,0-0.8s0-0.7,0-1.2
	c0-0.5,0-0.9,0-1.5c0-0.5,0-1,0-1.6l0,0v-4l-4-0.8v-13.2H283V394.9z M288.2,394.9v-13.2h27.3c3.6,0,6.6,0.2,9.3,0.5
	c2.6,0.3,4.8,0.8,6.7,1.3c1.8,0.6,3.3,1.3,4.5,2.1c1.2,0.8,2.1,1.8,2.7,2.9s1.1,2.2,1.3,3.5c0.2,1.3,0.3,2.6,0.3,4l0,0
	c0,1.5-0.1,2.8-0.4,4.1c-0.3,1.3-0.8,2.5-1.6,3.6c-0.8,1.1-1.8,2-3.1,2.9c-1.3,0.9-3,1.6-5.1,2.2c-2.1,0.6-4.6,1-7.5,1.3
	c-2.9,0.3-6.4,0.5-10.4,0.5l0,0v4l4,0.8v13.3h-28.1v-13.3l4-0.8v-19L288.2,394.9z M312.3,389.8v12.4c1.2,0,2.3-0.1,3.3-0.2
	c1-0.1,1.8-0.4,2.5-0.9c0.7-0.4,1.2-1.1,1.6-1.9c0.4-0.8,0.6-2,0.6-3.4l0,0c0-1.3-0.2-2.4-0.6-3.2s-0.9-1.4-1.6-1.8
	c-0.7-0.4-1.5-0.7-2.5-0.8C314.7,389.9,313.5,389.8,312.3,389.8L312.3,389.8z"/>
</svg>
