<?xml version="1.0" encoding="utf-8"?>
<!-- Generator: Adobe Illustrator 26.3.1, SVG Export Plug-In . SVG Version: 6.00 Build 0)  -->
<svg version="1.1" id="uuid-b4435243-bc06-4c97-9d1d-e943bcf73bb2"
	 xmlns="http://www.w3.org/2000/svg" xmlns:xlink="http://www.w3.org/1999/xlink" x="0px" y="0px" viewBox="0 0 513.4 224.1"
	 style="enable-background:new 0 0 513.4 224.1;" xml:space="preserve">
<style type="text/css">
	.st0{fill:#8CB369;}
	.st1{fill:#FFFFFF;}
</style>
<g id="uuid-4fa61496-75ec-494e-8891-daaea74d8c00">
	
		<g id="uuid-1aab1236-da6b-4e7b-851d-e6feacfe46a6" transform="matrix(0.9226978969485438, 0, 0, 0.9226978969485438, 5.726736326515367, 31.91911379270092)">
		<path id="uuid-e151be79-6edb-42c0-9951-2f063276266e" class="st0" d="M178.6,11c-23.6,5.1-50,7.9-78,7.9s-54.3-2.9-78-7.9
			C9.2,28,1.1,49.5,1.1,72.9s8.1,44.9,21.6,61.9c23.6-5.1,50-7.9,78-7.9s54.3,2.9,78,7.9c13.6-17,21.6-38.5,21.6-61.9
			S192.2,28,178.6,11C178.6,11,178.6,11,178.6,11z"/>
		<path id="uuid-b3ef3b4f-ca4f-4d16-8a8a-691b2085fe88" class="st0" d="M35,146.4c17.6,16,41.2,50.7,66.8,50.7s49.2-34.8,66.8-50.7
			c-20.7-4-43.3-6.2-66.8-6.2S55.6,142.4,35,146.4z"/>
		<path id="uuid-5b93840e-8304-43a6-a576-831408426491" class="st0" d="M168.6-1.3C151-17.2,127.5-27,101.8-27S52.6-17.2,35-1.3
			c20.7,4,43.3,6.2,66.8,6.2S147.9,2.7,168.6-1.3L168.6-1.3L168.6-1.3z"/>
		<path id="uuid-72bf59a6-3936-4db0-845e-d99e6470ca84" d="M174.4,15.7c-21.9,4.7-46.1,7.3-72,7.3s-50.1-2.6-72-7.3
			C18,31.4,10.5,51.2,10.5,72.8S18,114.3,30.4,130c21.9-4.7,46.1-7.3,72-7.3s50.1,2.6,72,7.3c12.5-15.7,19.9-35.5,19.9-57.1
			S186.9,31.4,174.4,15.7C174.4,15.7,174.4,15.7,174.4,15.7z"/>
		<path id="uuid-263e4732-4469-40e6-8de9-6e6c1e641862" d="M41.2,140.7c16.3,14.8,37.9,48.8,61.7,48.8s45.4-34,61.7-48.8
			c-19.1-3.6-40-5.6-61.7-5.6S60.3,137,41.2,140.7L41.2,140.7L41.2,140.7z"/>
		<path id="uuid-38bc4ec7-a4a4-42f9-9e89-5bd2d53fe002" d="M164.5,4.4c-16.3-14.8-37.9-23.8-61.7-23.8s-45.3,9-61.6,23.8
			C60.3,8,81.1,10,102.9,10S145.4,8.1,164.5,4.4C164.5,4.4,164.5,4.4,164.5,4.4z"/>
		<path id="uuid-9c85bfc8-9873-42be-9549-328be0997286" class="st1" d="M93.7,18.7c2.6-2.1,6.3-1.6,9-0.6c1.9,0.8,4.1,2.2,5.4,4
			c0.9,1.1,0.4,2.6,0.2,3.8c-0.5,1.8-1.2,3-1.2,6.1c-1.6,0.3-1.8,0.6-2.4,2.4c-0.3,1.4-1.1,3-2.2,3.3c-0.9-0.1-1-0.5-1.9-0.6
			c-1.1,1.2,0.6,2.6,1.2,3.6c1.9,2.1,1.8,5.1,2.5,7.6c0.2,0.6-1,0.9,5.1,7.8c1.7,3,4.4,5.3,6.9,7.6c2.8,2.6,4.5,6,7.2,8.8
			c1.1,1.3,2,3.2,4,3.4c2,0,2.8,1.9,4.8,2.1c4.2-0.7,9.1-5.9,12.5-10.5c1.6-10.1,16.1-24.5,24-14.8c6.7,10.7-10.5,19.9-20.5,19.5
			c-5.4,1.9-7.1,3.4-13.4,9.9c-1.8,0.2,0.4,2-4.4,4.1c-0.9-0.2-2-0.4-2.3-1.4c-0.6-1.4-2.1-1.4-3.1-2.3c-3.6-4.5-8.9-7.3-13.4-10.8
			c-2.7-1.7-3.6-4.8-5.6-7c-1.1-1.2-2-2.5-2.9-3.8c-5.2-7.8-4.5-3.1-5.7-5.3c-1.8-3.3-8-0.4-9.9,0.6c-2.6,0.7-5.8,2.4-8.1,4.1
			c-2.5,1-3.5,3.6-4.6,5.8c-0.4,0.8,0.7,1.3,1.2,1.8c4.7,2.6,8.9,6.2,13.7,8.6c1.3,0.7,3.1,1.3,3.8,2.9c1.7,3.5,1.2,7.6,2.7,11.3
			c0.9,2.3,1.9,4.5,2.2,7c0.3,2.2,1.8,4,1.9,6.3c0.6,5,3.7,9.7,8.3,11.8c3.1,1.7,6.6,2.4,10.1,2.9c2.5,0.4,2.5,4.5,0.2,5.1
			c-4,1.2-8.1,2.2-12.3,1.9c-4.1-0.2-8.5,1-12.3-0.8c-0.6-3,1-5.7,1.1-8.6c-1.3-7.9-8.3-13.4-9.8-21.3c-0.6-2.5,0-5.2-0.6-7.6
			c-3.2-1.8-7-2.2-10.7-2.8c-1.9-0.3-3.6-1.3-5.5-1.5c-1.2,1.2-1.1,3-1.5,4.6c-0.4,3-1.9,5.8-2.9,8.8c-0.6,2.4-2.6,4.2-2.8,6.8
			c-0.2,1.2-0.1,2.8-1.3,3.5c-1.9,1.3-4.2,1.7-6.6,1.5c-3.4-0.2-6.6,1.5-10.1,1.4c-5.5,0.1-11.3,0.2-16.3,2.4
			c-1.6,0.7-2.7,2.3-4.5,2.6c-3.5,0.7-6.6,2.7-9.7,4.4c-1,0.7-2.4,0.1-2.8-0.7c-1.3-3.6,3.4-6.5,6.6-9.2c1.3-1.1,2.3-2.4,3.3-3.8
			c1.7-2.3,3.8-4.2,5.9-6.2c1.5,1.1,2.5,2.6,3.9,3.8c0.9,0.9,2.4,0.6,3.4,0.1c4-1.8,7.8-3.8,12-4.7c2-0.6,4.1,0,6.1-0.2
			c1.8-3,0.9-6.6,0.6-9.9c-0.6-0.2-1.2-0.5-1.8-0.6c0.3-2.9,0.6-5.8,1.3-8.6s-1.8-5-2-7.6c-0.5-3.2,0.7-6.4,1.9-9.3
			c1.4-3,3-5.9,5.4-8.3c3.1-4.1,6.7-7.8,10.4-11.4c2.5-1.6,4.4-3.9,7.3-4.6c3.1-1,6.1-2.3,9.3-3.2c2.3-0.6,4-2.4,5.6-4
			c0.8-2-0.3-4.4,0.8-6.5C91.5,22.1,92.3,20.2,93.7,18.7L93.7,18.7L93.7,18.7z"/>
		<path id="uuid-e7879da9-db76-49ad-ae5d-9bf58ad47e61" class="st1" d="M179.2,45.8c1.5-0.6,3.4-0.2,4.2,1.3c1,1.6,0.2,3.9-1.5,4.6
			c-1.5,0.6-3.5,0.6-4.5-0.8C176.1,49.1,177.3,46.5,179.2,45.8L179.2,45.8L179.2,45.8z"/>
	</g>
	<path id="uuid-4287d8cb-d8a2-4200-b0cc-359c531a9c93" class="st0" d="M205.6,45.2h46.8v17h-5.6c-0.4-0.5-0.8-1-1.3-1.5
		s-1-1-1.6-1.4s-1.3-0.7-2-1s-1.5-0.4-2.3-0.4l0,0v23l4.3,0.8v14.5h-29.8V81.8l4.3-0.8V58c-0.8,0-1.6,0.1-2.3,0.4s-1.4,0.6-2,1
		s-1.1,0.9-1.6,1.4c-0.5,0.4-0.9,0.9-1.3,1.4h-5.6L205.6,45.2L205.6,45.2z M280.7,62.8V70l9.2-2v9.5l-9.2-2v7.3
		c1.3,0,2.6-0.1,3.9-0.3c1.2-0.2,2.4-0.5,3.4-0.8c1.1-0.3,2-0.7,2.9-1.2s1.6-0.9,2.3-1.4h4.6v17h-41V83l4-0.8V63.4l-4-0.8V49.5h41.1
		v17h-4.6c-0.6-0.5-1.4-1-2.3-1.4s-1.9-0.8-2.9-1.2c-1.1-0.3-2.2-0.6-3.4-0.8C283.4,62.9,282.1,62.8,280.7,62.8
		C280.7,62.8,280.7,62.8,280.7,62.8z M335.1,96.2l-16-24.5v10.5l4,0.7v13.3h-20V83l4-0.8V63.3l-4-0.8v-13h24l16,25.2V63.4l-4-0.8
		V49.5h20v13.1l-4,0.8v18.8l4,0.8v13.2C359.1,96.2,335.1,96.2,335.1,96.2z M397.5,96.2l-16-24.5v10.5l4,0.7v13.3h-20V83l4-0.8V63.3
		l-4-0.8v-13h24l16,25.2V63.4l-4-0.8V49.5h20v13.1l-4,0.8v18.8l4,0.8v13.2C421.5,96.2,397.5,96.2,397.5,96.2z M427.9,62.5v-13h28
		v13.1l-4,0.8v18.8l4,0.8v13.2h-28V83l4-0.8V63.3L427.9,62.5C427.9,62.5,427.9,62.5,427.9,62.5z M503,81.5L503,81.5
		c0,2.1-0.3,3.9-0.9,5.5s-1.4,3-2.4,4.1c-1,1.2-2.2,2.1-3.6,2.9s-2.9,1.4-4.5,1.9s-3.3,0.8-5,0.8c-1.7,0.1-3.5,0.1-5.2,0.1l0,0
		c-2.4,0-4.5-0.1-6.5-0.2c-1.9-0.1-3.6-0.4-5.2-0.7c-1.5-0.4-2.9-0.8-4-1.2c-1.2-0.5-2.2-0.9-3.1-1.3l0,0V81.8h9.4
		c0.9,1.5,2,2.5,3.2,3.2s2.4,1,3.7,1l0,0c0.4,0,0.8,0,1.3-0.1s0.9-0.3,1.3-0.6c0.4-0.4,0.7-0.9,1-1.6s0.4-1.8,0.4-3.1l0,0
		c-1.8-0.2-3.6-0.4-5.3-0.7c-1.8-0.3-3.4-0.7-5-1.2s-3.1-1.2-4.5-1.9c-1.4-0.8-2.6-1.7-3.6-2.9c-1-1.1-1.8-2.4-2.4-4
		c-0.6-1.5-0.9-3.3-0.9-5.2l0,0c0-2.3,0.3-4.2,0.9-5.9s1.4-3.2,2.4-4.4s2.2-2.2,3.5-3c1.4-0.8,2.8-1.4,4.4-1.9s3.2-0.8,4.9-1
		c1.7-0.2,3.4-0.3,5.1-0.3l0,0c2.4,0,4.6,0.1,6.5,0.4c1.9,0.2,3.6,0.6,5.1,0.9c1.5,0.4,2.9,0.8,4,1.2c1.2,0.5,2.2,0.9,3.1,1.3l0,0
		v11.6H491c-0.8-1.6-1.8-2.8-2.9-3.5s-2.2-1.1-3.3-1.1l0,0c-0.4,0-0.8,0.1-1.3,0.2c-0.5,0.1-0.9,0.4-1.4,0.8c-0.4,0.4-0.8,1-1.1,1.9
		c-0.3,0.8-0.4,1.9-0.4,3.3l0,0c3.7,0.1,6.9,0.5,9.6,1.2c2.8,0.6,5.1,1.6,6.9,2.9c1.9,1.3,3.3,2.9,4.2,4.9
		C502.5,76.2,503,78.7,503,81.5L503,81.5L503,81.5z"/>
	<path id="uuid-2a8f9e95-7728-4b14-becb-d3a7638597fd" d="M226.8,130.7L226.8,130.7c0,1.9,0.2,3.6,0.7,4.9c0.5,1.4,1.2,2.5,2.2,3.4
		c0.9,0.9,2.1,1.5,3.5,2c1.4,0.4,2.9,0.6,4.7,0.6l0,0c2.1,0,4.6-0.3,7.4-0.8s6-1.3,9.4-2.4l0,0V154c-3.6,1.2-7.1,2.1-10.5,2.6
		s-6.7,0.8-10,0.8l0,0c-4,0-7.8-0.5-11.3-1.5s-6.6-2.6-9.1-4.9c-2.6-2.2-4.6-5.1-6.1-8.5s-2.2-7.4-2.2-12l0,0
		c0-4.5,0.7-8.4,2.1-11.6s3.3-5.9,5.8-8s5.5-3.7,9-4.7s7.4-1.5,11.7-1.5l0,0c2.6,0,5,0.1,7.1,0.4s4,0.6,5.7,1s3.2,0.9,4.5,1.4
		s2.5,1,3.5,1.4l0,0v15.4h-10c-1.1-1.6-2.4-2.8-3.8-3.5c-1.4-0.8-2.8-1.1-4.3-1.1l0,0c-1.2,0-2.5,0.2-3.6,0.7
		c-1.2,0.5-2.2,1.2-3.1,2.1s-1.7,2.1-2.2,3.4C227.1,127.5,226.8,129,226.8,130.7L226.8,130.7L226.8,130.7z M317,123.1l-4,0.8v3.8
		l0,0v5.2c0,4.4-0.6,8.3-1.8,11.4c-1.2,3.2-2.9,5.8-5,7.8s-4.5,3.5-7.4,4.3c-2.8,0.8-5.8,1.2-9,1.2l0,0c-3.7,0-7.1-0.4-10.2-1.2
		c-3.2-0.8-5.9-2.2-8.3-4.3c-2.3-2-4.2-4.6-5.5-7.8s-2-7-2-11.4l0,0V124l-4-0.8V110h26.1v13.2l-4,0.8v9l0,0v1.8
		c0,0.7,0.1,1.4,0.3,2.1s0.4,1.4,0.7,2.1s0.8,1.3,1.4,1.9c0.6,0.6,1.3,1,2.2,1.3s2,0.5,3.4,0.5l0,0c1.3,0,2.5-0.2,3.4-0.5
		s1.7-0.8,2.3-1.4s1-1.2,1.4-1.9c0.3-0.7,0.6-1.4,0.7-2.2l0.3-2.1c0-0.7,0.1-1.3,0.1-1.8l0,0v-5.1l0,0v-4l-4-0.8v-13.2h23.2
		L317,123.1L317,123.1L317,123.1z M322.2,123.1v-13.2h27.3c3.6,0,6.6,0.2,9.3,0.5c2.6,0.3,4.8,0.8,6.7,1.3c1.8,0.6,3.3,1.3,4.5,2.1
		c1.2,0.8,2.1,1.8,2.7,2.9c0.7,1.1,1.1,2.2,1.3,3.5s0.3,2.6,0.3,4l0,0c0,1.5-0.1,2.8-0.4,4.1c-0.3,1.3-0.8,2.5-1.6,3.6
		s-1.8,2-3.1,2.9s-3,1.6-5.1,2.2s-4.6,1-7.5,1.3s-6.4,0.5-10.4,0.5l0,0v4l4,0.8v13.3h-28v-13.3l4-0.8v-19L322.2,123.1L322.2,123.1
		L322.2,123.1z M346.3,118v12.4c1.2,0,2.3-0.1,3.3-0.2s1.8-0.4,2.5-0.9s1.2-1.1,1.6-1.9c0.4-0.8,0.6-2,0.6-3.4l0,0
		c0-1.3-0.2-2.4-0.6-3.2s-0.9-1.4-1.6-1.8s-1.5-0.7-2.5-0.8C348.6,118.1,347.5,118,346.3,118C346.3,118,346.3,118,346.3,118z"/>
</g>
</svg>
